<svg width="302" height="181" viewBox="0 0 302 181" fill="none" xmlns="http://www.w3.org/2000/svg">
<path d="M184.554 77.1846V181H117.635V77.1846H184.554Z" fill="white" fill-opacity="0.5"/>
<path d="M174.317 66.0044L184.554 77.1846H117.635L128.82 66.0044H174.317Z" fill="#F7F7F7" fill-opacity="0.65"/>
<path d="M65.3017 92.0382H117.635V100.024H55.6314L65.3017 92.0382Z" fill="#F0F0F0" fill-opacity="0.5"/>
<path d="M55.6314 181V99.8642H117.635V181H55.6314Z" fill="white" fill-opacity="0.3"/>
<path d="M233.325 115.197H184.554V106.572H225.734L233.325 115.197Z" fill="#F0F0F0" fill-opacity="0.42"/>
<path d="M233.325 181V115.197H184.554V181H233.325Z" fill="white" fill-opacity="0.2"/>
<path d="M117.635 92.0382L100.622 92.0382C99.4874 76.1855 106.591 49.394 151.588 49.394C196.586 49.394 199.677 86.1287 199.677 106.572H184.554V77.1846L174.346 66.0044H128.823L117.635 77.1846V92.0382Z" fill="white" fill-opacity="0.26"/>
<path d="M31.4348 128.2C31.4348 108.676 57.9816 28.3114 151.176 28.3114C244.371 28.3114 268.757 104.975 268.757 140.432" stroke="white" stroke-opacity="0.26"/>
<path d="M1 127.655C0.999983 103.402 38.1255 1 151.851 1C265.576 1 301 96.8679 301 140.911" stroke="white" stroke-opacity="0.26"/>
<path d="M155.994 103.704V132.795H148.977V110.267H148.806L142.3 114.244V108.164L149.474 103.704H155.994Z" fill="white"/>
<path d="M76.0243 154.516V149.46L86.635 140.17C87.4305 139.45 88.1076 138.792 88.6663 138.195C89.225 137.589 89.6511 136.983 89.9447 136.377C90.2383 135.762 90.385 135.094 90.385 134.374C90.385 133.569 90.2099 132.883 89.8595 132.315C89.5091 131.737 89.0261 131.292 88.4106 130.979C87.7951 130.667 87.0896 130.511 86.2941 130.511C85.4892 130.511 84.7837 130.676 84.1777 131.008C83.5716 131.33 83.0981 131.799 82.7572 132.414C82.4258 133.03 82.26 133.778 82.26 134.658H75.5981C75.5981 132.679 76.0432 130.97 76.9333 129.531C77.8235 128.091 79.0735 126.983 80.6833 126.207C82.3027 125.421 84.1824 125.028 86.3225 125.028C88.529 125.028 90.4466 125.397 92.0754 126.136C93.7042 126.874 94.9636 127.907 95.8538 129.232C96.7534 130.549 97.2032 132.078 97.2032 133.82C97.2032 134.928 96.9807 136.027 96.5356 137.116C96.0905 138.205 95.2903 139.408 94.135 140.724C92.9892 142.04 91.3604 143.617 89.2487 145.454L85.7686 148.664V148.849H97.5583V154.516H76.0243Z" fill="white"/>
<path d="M208.81 161.303C206.594 161.303 204.629 160.924 202.915 160.166C201.21 159.399 199.866 158.344 198.881 156.999C197.896 155.654 197.394 154.106 197.375 152.354H204.449C204.478 152.988 204.681 153.552 205.06 154.044C205.439 154.527 205.955 154.906 206.608 155.181C207.262 155.455 208.005 155.593 208.838 155.593C209.672 155.593 210.406 155.446 211.04 155.152C211.684 154.849 212.186 154.437 212.546 153.916C212.906 153.386 213.081 152.78 213.071 152.098C213.081 151.416 212.887 150.81 212.489 150.28C212.091 149.75 211.528 149.338 210.799 149.044C210.079 148.751 209.227 148.604 208.242 148.604H205.415V143.604H208.242C209.103 143.604 209.861 143.462 210.514 143.178C211.177 142.894 211.693 142.496 212.063 141.985C212.432 141.464 212.612 140.867 212.603 140.195C212.612 139.541 212.456 138.969 212.134 138.476C211.821 137.974 211.381 137.586 210.813 137.311C210.254 137.037 209.605 136.899 208.867 136.899C208.09 136.899 207.385 137.037 206.75 137.311C206.125 137.586 205.628 137.974 205.259 138.476C204.889 138.978 204.695 139.56 204.676 140.223H197.958C197.977 138.49 198.46 136.966 199.406 135.649C200.353 134.324 201.641 133.287 203.27 132.539C204.908 131.79 206.774 131.416 208.867 131.416C210.95 131.416 212.782 131.781 214.364 132.51C215.945 133.239 217.176 134.234 218.057 135.493C218.938 136.743 219.378 138.159 219.378 139.74C219.388 141.379 218.853 142.728 217.773 143.789C216.703 144.849 215.325 145.503 213.639 145.749V145.976C215.893 146.241 217.593 146.97 218.739 148.164C219.894 149.357 220.467 150.848 220.458 152.638C220.458 154.324 219.96 155.82 218.966 157.127C217.981 158.424 216.608 159.447 214.847 160.195C213.095 160.933 211.083 161.303 208.81 161.303Z" fill="white"/>
<defs>
<linearGradient id="paint0_linear_609_23" x1="151.095" y1="77.1846" x2="151.095" y2="181" gradientUnits="userSpaceOnUse">
<stop stop-color="white" stop-opacity="0.1"/>
<stop offset="1" stop-color="white" stop-opacity="0.88"/>
</linearGradient>
</defs>
</svg>
