<svg width="108" height="108" viewBox="0 0 108 108" fill="none" xmlns="http://www.w3.org/2000/svg">
<g filter="url(#filter0_d_102_3)">
<path d="M4 5.00001C4 2.23858 6.23858 0 9 0H99C101.761 0 104 2.23858 104 5V92.3077H4V5.00001Z" fill="white"/>
<path d="M70.6667 92.3077H104V92.3077C104 96.556 100.556 100 96.3077 100H70.6667V92.3077Z" fill="#EFA1FC"/>
<path d="M4 92.3077H37.3333V100H11.6923C7.44396 100 4 96.556 4 92.3077V92.3077Z" fill="#A3EDBC"/>
<path d="M37.3333 92.3077H70.6667V100H37.3333V92.3077Z" fill="#695ADF"/>
<path d="M80.0385 44.8536C80.0385 58.6756 68.4176 70.1303 53.7692 70.1303C39.1209 70.1303 27.5 58.6756 27.5 44.8536C27.5 31.0316 39.1209 19.5769 53.7692 19.5769C68.4176 19.5769 80.0385 31.0316 80.0385 44.8536Z" stroke="#695ADF" stroke-width="9"/>
<path d="M86.9249 70.6783L77.133 63.0049L74.2821 66.4119L84.0739 74.0854C84.4894 74.176 85.5343 74.1016 86.3895 73.0795C87.2448 72.0573 87.1028 71.0528 86.9249 70.6783Z" fill="#695ADF"/>
<ellipse cx="88.6667" cy="74.7692" rx="2.33333" ry="2.15385" fill="#695ADF"/>
</g>
<defs>
</defs>
</svg>
